<svg xmlns="http://www.w3.org/2000/svg" xml:space="preserve" id="Layer_1" x="0" y="0" style="enable-background:new 0 0 1080 1080" version="1.1" viewBox="0 0 1080 1080"><style>.st2{fill:#e8b32f}.st3{fill:#282828}</style><path d="M699.1 553.6c-15.4-36.3-30.5-72.7-45.8-109-2.4-5.7-4.5-11-1.8-17.6 1.6-4.1 1.3-9.3-2.4-13.4-5.2-5.8-14.2-7.1-20.6-1.6-4.4 3.7-8.2 4.1-13 2-2.7-1.2-5.6-1.8-8.2-3.2-16.1-8.7-32-17.6-48-26.3-4.9-2.6-5.6-6.1-3.3-11.2 7.7.3 14 3.6 20.2 7.9.9-1.6 1.7-3.1 2.6-4.8-8.9-7.3-19.3-9.1-30.9-10.6-.6-13.4-1.2-26.4-2-39.4-.2-4.2.7-7.5 3.6-10.9 3.5-4.1 2-10 1.5-14.8-.4-4.2-4.9-6-9.3-6.3-4.7-.3-8.7 1-11.6 4.9-.5.7-.7 1.5-1 3-.5 2.6-1.2 6.2.4 9.9.9 2.1 1.1 2.3 2.7 4.9.6 1 1.3 2.7 1.2 4.1-.5 14.5 2 29.3-3.3 44.4-2.9.5-6.1.8-9.2 1.7-5.2 1.5-10.5 3-15.5 5.1-3.1 1.3-4.2 3.9-1.6 7 7.4-1.7 13.6-9.3 22.1-5 1.3 4.9-1 7.4-4.5 9.3-17.3 9.4-34.6 19-52.1 28.1-6.7 3.5-13.7 6.1-21-.7-4.3-4.1-12.1-2.9-16.3.5-5.3 4.2-7.3 9.7-4.8 16.4 1.9 5.2 1 9.7-1.1 14.5-16.9 39.6-33.7 79.3-50.6 118.9 14 27.4 35.6 42.3 66.9 40.5 25.1-1.4 43-14.5 55.4-36 1.6-2.8 2.1-5.2.7-8.3-2.6-6-4.9-12.2-7.3-18.3-13.8-34.5-27.5-69-41.1-103.1 3-7.1 7.1-10.6 15-11 5.5-.3 10.9-3.9 16-6.6 12.6-6.7 25-13.7 37.5-20.5 1.8-1 3.8-1.5 6.4-2.5.3 3.1.8 5.2.7 7.2-.2 3.6-1.2 7.2-1.1 10.8.6 45.8-1.4 91.6 1.3 137.4 1.7 28.5 2.9 56.9 7.5 85.1 1.1 6.8 3.3 13.4 5 20.1 6.3-16.4 7.8-33 9.5-49.5 1.3-13.1 1.9-26.2 2.7-39.4 1.4-24.4 3.2-48.9 3.8-73.3.7-28.6.2-57.2.3-85.8 0-3.5.2-7.1.3-10.7 2.4.1 3.6-.2 4.5.3 9.3 5 18.6 10.1 27.9 15.2 11.1 6.1 21.4 14.2 35 13.6 2.2 3.5 4.1 6.5 6 9.5-17 42-33.9 83.6-51.1 126.3 4.9 6.6 9.2 14.4 15.4 20.5 30.1 29.7 81.1 25.2 105.1-13 3.3-5.4 3.8-10.4 1.3-16.3zm-209.6 1.5c.4 1 .6 2 1.1 3.7-9.1 2.4-92.6 2.6-103.3.4.4-2.3.3-4.9 1.2-7.1 14.8-36.1 29.8-72.1 44.7-108.2.6-1.3 1-2.8 1.8-4 2.1-3.1 6-3.3 8.3-.5.9 1.1 1.4 2.5 1.9 3.9 14.8 37.3 29.6 74.5 44.3 111.8zm97 5.5c4.7-12.2 9.1-23.6 13.6-35 9.9-25 19.9-50.1 29.8-75.1 1.2-3 2.6-6 4-9 1.4-3.1 3.8-4.2 8.5-3.8 16.7 40.3 33.6 81.1 50.8 122.9H586.5zM542.9 88.7c7.3 14.4 12.5 28 15.9 42.1 1.7 7 .2 13.8-3.8 20-2.8 4.3-6.2 8.4-4.5 14.1 2.1 6.8 5.6 12.7 11 17.3 16.5 14.2 37 9.4 52-2.7 3.4-2.7 6.1-6.3 9.1-9.5.3 10 1.7 19.7 6.6 28.6 3.9 7.1 9.8 10.5 17.9 10.2 5.9-.2 8.8-2.6 9.3-8.5.5-6.3-2-11.5-7.2-15.1-3-2-6.4-3.4-9.5-5 8-5.8 8.3-5.8 27.8-1.4 9-16.6 24.3-22.3 43.6-22.9-29.2 26.9-52.7 56.1-59.6 96H434.9c-7.7-37.5-27-68.5-57.9-93.9 18.9-.7 32.4 6.9 43.1 20.9 9.6-1.8 19.2-6.3 29.3.9-3.5 2.1-6.9 3.9-10 6-5.6 3.7-8.6 8.7-8 15.7.4 4.4 2.5 6.7 6.8 7.2 4.6.6 8.5-.7 12.1-3.8 8.1-6.9 10.6-16.3 12.6-26.1.4-2.1.6-4.2 1.1-7.8 2.7 2.2 4.7 3.5 6.3 5.1 8.4 8.4 18.8 12.6 30.1 14.5 14.1 2.3 33.6-12.7 35.2-27 .3-2.7-.4-6.1-2-8.2-9.1-11.4-8.6-23.8-4.3-36.4 3.5-9.9 6.5-20.1 13.6-30.3zM550.3 749.6c12.7 12.4 25.4 24.8 37.7 36.7-1.1 5.1-4.1 5.3-7 4.8-7.4-1.3-12.4-6-16.3-12-3.2-4.9-6-10.1-9.1-15-1.8-2.8-3.9-5.3-5.8-8-5.9-8.6-14.7-7.1-22.9-5.9-2.7.4-5.4 3.6-7.2 6.2-4.7 6.5-8.7 13.6-13.4 20.1-3 4.1-6.3 8.2-10.2 11.3-4.3 3.4-9.5 5.7-16 .4 13.4-13.2 26.6-26 39.9-39-4.6-3.2-7.8-1.4-11.1.4-16.2 8.8-33.4 15-51.6 17-16.2 1.8-32.8 2.7-49.4-2.3.9-5.2 5-7.2 8.5-9.5 19.4-13.1 40.8-18.6 64.2-18.2 15.9.3 31.1 3.9 46.6 6.1 4.7.7 9.5 1.3 14.2.7 9.7-1.3 19.3-3.9 29-5.1 31.1-3.7 61.4-2.8 88.3 16.3 2.1 1.5 4.1 3 6 4.7 1 .9 1.7 2.2 3.3 4.4-4.8 1.3-8.7 3.1-12.8 3.4-25.1 1.8-49.7-.1-73-10.4-5.3-2.4-10.7-4.7-15.8-7.5-5-2.9-9.8-1.8-16.1.4zM544.1 280.8H443.9c-2.9 0-5.9.2-8.8-.2-5.6-.7-7.5-2.8-7.5-7.6-.1-5.2 2.3-8.3 7.5-9.1 2.2-.3 4.4-.2 6.6-.2h202.5c2.6 0 5.2-.2 7.7.3 5.1.9 7.1 3.9 6.7 9.5-.4 5.1-2 6.7-7.8 7.1-2.6.2-5.1.1-7.7.1-33 .1-66 .1-99 .1zM804.8 687.8c-40.6 24.2-81.8 28.1-126.1 16.6 29.4-26.5 98.8-31.5 126.1-16.6zM400.7 703.2c-31 14.1-95.4 7.8-124-15.7 18.5-13.7 89.6-11.7 124 15.7zM422.3 663.9c27.7-5.5 90.4 34.2 101.5 64.2-35.2 2-92.3-36.5-101.5-64.2zM415.2 694.6c-34.3-15.1-68.6-75.6-63.5-100.1 26.3 4.9 66.3 67.4 63.5 100.1zM346.1 736.2c31.2-23.4 90.8-27.6 121.5-12.8-2.1 1.8-3.8 3.5-5.8 4.7-26 14.7-54.2 18.8-83.5 16.8-7.9-.5-15.8-2.7-23.6-4.5-2.7-.6-5.1-2.4-8.6-4.2zM663.5 695.2c3.5-30.9 15.6-56.4 35.3-78.3 8.6-9.5 17.1-19.7 30.7-23.9-.1 37.7-34.6 88.2-66 102.2zM733 736.1c-31 16.9-97 9-120-12.5 29.8-15.9 93.6-9.7 120 12.5zM657.2 663.8c-3.5 12.7-21.3 31.5-42.6 45.1-16.9 10.7-31.1 15.7-58.1 20.2 6.4-27.8 69.3-68.5 100.7-65.3zM778.8 415c-39.5-10.2-73.7-56.1-75.1-81.8 29.2 3.4 70.5 46.6 75.1 81.8zM699.3 248.4c33.2 15.6 58.6 64 56.9 95.2-31.6-13.4-61-62.1-56.9-95.2zM299.9 414.9c12-40.6 36.8-67.7 75-83 3.4 5.4.4 10-1.2 14-13.4 32.1-36.1 55.2-68.3 68.5-1.2.5-2.7.3-5.5.5zM323.5 344.6c2.4-43 22.6-73.5 56.6-97.3 1.3 2.6 2.8 4.1 2.6 5.5-4 35.6-24.4 72.4-59.2 91.8zM771 507c13.6 31.5 2.4 87.3-23.4 109.8-10.5-40.2-2.9-75.9 23.4-109.8zM331.4 616.5c-26.6-25.6-35.8-82.3-22.4-107.4 25.1 22.9 35.4 76.5 22.4 107.4zM791.2 508.8c-26.2-14.5-47.8-61.3-41-94.7 3.4-1.9 5.5.7 7.5 2.5 16.5 15.2 27.6 33.7 32.4 55.7 3.3 14.7 3.4 25.8 1.1 36.5zM330 413.2c3.6 39.9-9.7 71.5-40 96.2-11.1-22 10.8-84.2 40-96.2zM218.8 536c40.5 8.5 69.8 29.5 89.5 64.8-6.7 3.5-12.7.3-17.9-1.6-27.5-9.9-50.3-26.2-66.3-51.3-1-1.5-2.2-3-3-4.6-.7-1.7-1.1-3.5-2.3-7.3zM271.2 609.2c41.4 6 72.4 25.1 94.4 59.9-38.1.5-84.7-33.6-94.4-59.9zM283.2 438.7c-23.6-24.3-34.7-81.8-21.2-106.6 20.6 16.7 33.9 72.6 21.2 106.6zM860 537.8c-7.4 27.8-58.4 66.1-88.1 63.6 16.5-33.7 57.8-63.6 88.1-63.6zM857.1 393.7c5.7 26.3-20 75.4-49.8 95.2-6.1-30.1 23.9-87.4 49.8-95.2zM778.5 375.1c-20.8-32.1-20.2-87.8-4.3-108.8 17 17.8 22.9 78.2 4.3 108.8zM808 610.6c-2.5 10.8-10.7 17.1-17.7 24.1-20.2 20.4-44.8 31.7-73.3 35.1 2.7-24.2 58.3-60.5 91-59.2zM223.7 467.4c30.2 11.1 57.8 49 63.8 87.7-23.7-4-65.8-55.9-63.8-87.7zM817.8 331.5c13.2 24.1 3 84.2-20.8 106.4-12.4-31.2-.5-86.2 20.8-106.4zM223.5 393.7c20.1 6.5 52.9 54.9 51.3 94.7-21.4-6-56.9-61.3-51.3-94.7zM856 466.7c2.5 28.4-32.5 77.7-62.4 88.6-2.3-8.1 1.5-15.1 4-22 9.5-25.8 26.3-46 48.8-61.6 2.7-1.9 5.9-3.1 9.6-5zM301.1 375c-15.8-26-13.2-89.5 4.3-108.8 14.6 11.8 18.3 78-4.3 108.8z" class="st2"/><path d="M626.8 144.4c6.6-.1 11.2 4 11.5 10.4.3 6.2-5.2 11.5-11.8 11.5-6.6 0-11.3-4.3-11.5-10.5-.1-6.7 4.6-11.3 11.8-11.4zM471.5 156.1c0 7.5-3 10.5-10.6 10.6-7.3.1-11.2-3.5-11.2-10.3 0-7.1 4.5-11.6 11.6-11.6 6.6-.1 10.1 3.8 10.2 11.3z" class="st2"/><path d="M163.8 888h3.9l17.8-43.6h7.6L211 888h4.5v3.8h-22.2V888h4.6l-3.9-9.7h-17.8l-4 9.7h5.7v3.8h-14.1V888zm28.7-13.6-7.3-18.1-7.4 18.1h14.7zM217.8 888h6v-39.7h-6v-3.8h28.1c11.6 0 17.4 3.9 17.4 11.7 0 5.7-4 9-11.9 9.8 9.6.9 14.8 5.3 14.8 12.2 0 9.6-7.1 13.7-22 13.7h-26.3V888zm22.5-23.8c7.2 0 10.7-2.5 10.7-8.1s-3.4-7.9-10.7-7.9h-4.2v15.9h4.2zm.3 23.8c8.1 0 11.9-3.1 11.9-9.9 0-6.8-3.9-10.1-11.9-10.1H236v20h4.6zM272.8 888h6v-39.7h-6v-3.8h24.3c17 0 26.3 8.4 26.3 23.7s-9.2 23.7-26.3 23.7h-24.3V888zm22.6 0c10.1 0 14.3-6.3 14.3-19.9 0-13.6-4.2-19.8-14.3-19.8H291V888h4.4zM328.3 848.3v-3.8h24.4v3.8h-6V872c0 11.3 2.9 15.9 12.2 15.9 9.1 0 12-4.7 12-15.9v-23.7h-6v-3.8h16.5v3.8h-6v24.4c0 14.5-5.7 20.1-20.5 20.1-14.7 0-20.5-5.7-20.5-20.2v-24.3h-6.1zM385.8 888h6v-39.7h-6v-3.8h24.4v3.8h-6.1v39.2h18.7V880h4.3v11.8h-41.2V888zM431.5 888h6v-39.7h-6v-3.8h24.4v3.8h-6.1v39.2h18.7V880h4.3v11.8h-41.2V888zM473.6 888h3.9l17.8-43.6h7.6l17.9 43.6h4.5v3.8h-22.2V888h4.6l-3.9-9.7H486l-4 9.7h5.7v3.8h-14.1V888zm28.7-13.6-7.3-18.1-7.4 18.1h14.7zM546.7 888h3.9l17.8-43.6h7.6l17.9 43.6h4.5v3.8h-22.2V888h4.6l-3.9-9.7h-17.8l-4 9.7h5.7v3.8h-14.1V888zm28.6-13.6-7.3-18.1-7.4 18.1h14.7zM600.7 888h6v-39.7h-6v-3.8h24.4v3.8H619v39.2h18.7V880h4.3v11.8h-41.2V888zM666.8 870.1v8.6h-20v-8.6h20zM675.3 878.3h4c1.2 7.2 5.8 10.6 13.8 10.6 6.6 0 10.1-2.6 10.1-7.3 0-4.7-3.2-6-9-7.4l-7.1-1.8c-8.8-2.2-12.6-5.7-12.6-13.9 0-9.4 6.6-14.9 17.8-14.9 5.5 0 11.4.9 17.9 2.8v10.5h-4c-1.2-6.6-5.3-9.4-12.9-9.4-6.3 0-9.5 2.2-9.5 6.5 0 5.1 3.3 6 9.8 7.7l7.1 1.8c8.6 2.1 12.5 6.4 12.5 14.8 0 9.6-6.7 14.6-19.5 14.6-6.2 0-12.2-1-18.5-3.2v-11.4zM716.7 888h3.9l17.8-43.6h7.6l17.9 43.6h4.5v3.8h-22.2V888h4.6l-3.9-9.7h-17.8l-4 9.7h5.7v3.8h-14.1V888zm28.7-13.6-7.3-18.1-7.4 18.1h14.7z" class="st3"/><path d="M767.1 888h3.9l17.8-43.6h7.6l17.9 43.6h4.5v3.8h-22.2V888h4.6l-3.9-9.7h-17.8l-4 9.7h5.7v3.8h-14.1V888zm28.7-13.6-7.3-18.1-7.4 18.1h14.7zM821.2 888h6v-39.7h-6v-3.8h24.3c17 0 26.3 8.4 26.3 23.7s-9.2 23.7-26.3 23.7h-24.3V888zm22.6 0c10.1 0 14.3-6.3 14.3-19.9 0-13.6-4.2-19.8-14.3-19.8h-4.4V888h4.4zM877.5 888h6v-39.7h-6v-3.8h24.4v3.8h-6.1V888h6.1v3.8h-24.4V888zM439.9 970.3v-29.8h6.1v24.8h15.1v5.1h-21.2zM492.5 970.3h-6.6l-2.6-6.8h-12l-2.5 6.8h-6.4l11.7-30.1h6.4l12 30.1zm-11.1-11.9-4.1-11.2-4.1 11.2h8.2zM500 970.3l-7.2-30.1h6.2l4.5 20.7 5.5-20.7h7.2l5.3 21 4.6-21h6.1l-7.3 30.1h-6.4l-6-22.5-6 22.5H500zM547.1 970.3v-30.1h20.6v5.1h-14.5v7.1h12.6v5.1h-12.6v12.8h-6.1zM572.5 970.3v-30.1h6.1v30.1h-6.1zM584.4 970.3v-30.1h12.8c3.2 0 5.5.3 7 .8s2.6 1.5 3.5 2.9 1.3 3 1.3 4.7c0 2.3-.7 4.1-2 5.6s-3.3 2.4-5.9 2.8c1.3.8 2.4 1.6 3.2 2.5s2 2.5 3.5 4.9l3.7 5.9h-7.3l-4.4-6.5c-1.6-2.3-2.6-3.8-3.2-4.4s-1.2-1-1.8-1.3c-.6-.2-1.7-.3-3.1-.3h-1.2v12.6h-6.1zm6.1-17.4h4.5c2.9 0 4.7-.1 5.5-.4s1.3-.7 1.7-1.3.6-1.4.6-2.3c0-1-.3-1.8-.8-2.5-.5-.6-1.3-1-2.3-1.2-.5-.1-2-.1-4.4-.1h-4.7v7.8zM614.7 970.3v-30.1h9.1l5.5 20.5 5.4-20.5h9.1v30.1h-5.6v-23.7l-6 23.7h-5.8l-5.9-23.7v23.7h-5.8zM239.9 954.4h178.5v3.6H239.9zM665.2 954.4h178.5v3.6H665.2z" class="st3"/></svg>
